<mxfile host="drawio-plugin" modified="2021-04-24T08:55:45.443Z" agent="5.0 (Windows NT 6.2; Win64; x64) AppleWebKit/537.36 (KHTML, like Gecko) Chrome/87.0.4280.141 Safari/537.36" version="13.7.9" etag="gdOR-cTYRMHdlMbcHg7e" type="embed"><diagram id="Jmw5qARFhBudutvel0ql" name="Page-1"><mxGraphModel dx="823" dy="415" grid="1" gridSize="10" guides="1" tooltips="1" connect="1" arrows="1" fold="1" page="1" pageScale="1" pageWidth="850" pageHeight="1100" math="0" shadow="0"><root><mxCell id="0"/><mxCell id="1" parent="0"/><mxCell id="2" value="6 表示层" style="rounded=0;whiteSpace=wrap;html=1;align=center;" vertex="1" parent="1"><mxGeometry x="180" y="150" width="120" height="50" as="geometry"/></mxCell><mxCell id="4" value="5 会话层" style="rounded=0;whiteSpace=wrap;html=1;align=center;" vertex="1" parent="1"><mxGeometry x="180" y="200" width="120" height="50" as="geometry"/></mxCell><mxCell id="5" value="4 传输层" style="rounded=0;whiteSpace=wrap;html=1;align=center;" vertex="1" parent="1"><mxGeometry x="180" y="250" width="120" height="50" as="geometry"/></mxCell><mxCell id="6" value="3 网络层" style="rounded=0;whiteSpace=wrap;html=1;align=center;" vertex="1" parent="1"><mxGeometry x="180" y="300" width="120" height="50" as="geometry"/></mxCell><mxCell id="7" value="2 数据链路层" style="rounded=0;whiteSpace=wrap;html=1;align=center;" vertex="1" parent="1"><mxGeometry x="180" y="350" width="120" height="50" as="geometry"/></mxCell><mxCell id="8" value="7 应用层" style="rounded=0;whiteSpace=wrap;html=1;align=center;" vertex="1" parent="1"><mxGeometry x="180" y="100" width="120" height="50" as="geometry"/></mxCell><mxCell id="9" value="1 物理层" style="rounded=0;whiteSpace=wrap;html=1;align=center;" vertex="1" parent="1"><mxGeometry x="180" y="400" width="120" height="50" as="geometry"/></mxCell><mxCell id="11" value="&amp;lt;应用层&amp;gt;&lt;br&gt;TELNET、SSH、HTTP、SMTP、POP、SSL/TLS、FTP、MIME、HTML、&lt;br&gt;SNMP、MIB、SIP、RTP......" style="rounded=0;whiteSpace=wrap;html=1;align=center;" vertex="1" parent="1"><mxGeometry x="360" y="100" width="270" height="150" as="geometry"/></mxCell><mxCell id="12" value="&amp;lt;传输层&amp;gt;&lt;br&gt;TCP、UDP、UDP-Lite、SCTP、DCCP" style="rounded=0;whiteSpace=wrap;html=1;align=center;" vertex="1" parent="1"><mxGeometry x="360" y="250" width="270" height="50" as="geometry"/></mxCell><mxCell id="14" value="&amp;lt;网络层&amp;gt;&lt;br&gt;ARP、IPv4、IPv6、ICMP、IPsec" style="rounded=0;whiteSpace=wrap;html=1;align=center;" vertex="1" parent="1"><mxGeometry x="360" y="300" width="270" height="50" as="geometry"/></mxCell><mxCell id="15" value="以太网、无线LAN、PPP ......&lt;br&gt;（双绞线电缆、无线、光纤 ......）" style="rounded=0;whiteSpace=wrap;html=1;align=center;" vertex="1" parent="1"><mxGeometry x="360" y="350" width="270" height="100" as="geometry"/></mxCell><mxCell id="16" value="" style="endArrow=none;dashed=1;html=1;dashPattern=1 3;strokeWidth=2;" edge="1" parent="1"><mxGeometry width="50" height="50" relative="1" as="geometry"><mxPoint x="145" y="250" as="sourcePoint"/><mxPoint x="705" y="250" as="targetPoint"/></mxGeometry></mxCell><mxCell id="17" value="" style="endArrow=none;dashed=1;html=1;dashPattern=1 3;strokeWidth=2;" edge="1" parent="1"><mxGeometry width="50" height="50" relative="1" as="geometry"><mxPoint x="145" y="300" as="sourcePoint"/><mxPoint x="705" y="300" as="targetPoint"/></mxGeometry></mxCell><mxCell id="18" value="" style="endArrow=none;dashed=1;html=1;dashPattern=1 3;strokeWidth=2;" edge="1" parent="1"><mxGeometry width="50" height="50" relative="1" as="geometry"><mxPoint x="145" y="350" as="sourcePoint"/><mxPoint x="705" y="350" as="targetPoint"/></mxGeometry></mxCell><mxCell id="19" value="" style="endArrow=none;dashed=1;html=1;dashPattern=1 3;strokeWidth=2;" edge="1" parent="1"><mxGeometry width="50" height="50" relative="1" as="geometry"><mxPoint x="145" y="449" as="sourcePoint"/><mxPoint x="705" y="449" as="targetPoint"/></mxGeometry></mxCell><mxCell id="20" value="互联网层" style="text;html=1;strokeColor=none;fillColor=none;align=center;verticalAlign=middle;whiteSpace=wrap;rounded=0;" vertex="1" parent="1"><mxGeometry x="50" y="315" width="120" height="25" as="geometry"/></mxCell><mxCell id="21" value="网卡层" style="text;html=1;strokeColor=none;fillColor=none;align=center;verticalAlign=middle;whiteSpace=wrap;rounded=0;" vertex="1" parent="1"><mxGeometry x="50" y="365" width="120" height="25" as="geometry"/></mxCell><mxCell id="22" value="硬件" style="text;html=1;strokeColor=none;fillColor=none;align=center;verticalAlign=middle;whiteSpace=wrap;rounded=0;" vertex="1" parent="1"><mxGeometry x="50" y="415" width="120" height="25" as="geometry"/></mxCell></root></mxGraphModel></diagram></mxfile>